<svg xmlns="http://www.w3.org/2000/svg" version="1.1" xmlns:xlink="http://www.w3.org/1999/xlink" xmlns:svgjs="http://svgjs.dev/svgjs" width="1440" height="1080" preserveAspectRatio="none" viewBox="0 0 1440 1080"><g mask="url(&quot;#SvgjsMask1074&quot;)" fill="none"><path d="M308.7845047649846 1032.4273061987924L319.3181576097845 730.7829553407967 17.673806751788845 720.2493024959967 7.140153906988928 1021.8936533539925z" fill="rgba(28, 83, 142, 0.4)" class="triangle-float2"></path><path d="M246.86810603640103 679.8851337431212L385.44246450714184 474.44019863770797 41.42317093098782 541.3107752723804z" fill="rgba(28, 83, 142, 0.4)" class="triangle-float3"></path><path d="M512.14 661.18 a185.97 185.97 0 1 0 371.94 0 a185.97 185.97 0 1 0 -371.94 0z" fill="rgba(28, 83, 142, 0.4)" class="triangle-float2"></path><path d="M177.241,86.05C211.041,86.355,241.408,66.739,258.487,37.571C275.758,8.075,278.423,-28.286,261.62,-58.052C244.545,-88.299,211.934,-108.026,177.241,-106.349C144.916,-104.786,121.557,-78.849,105.902,-50.524C90.872,-23.33,84.108,8.588,98.494,36.128C113.917,65.654,143.931,85.75,177.241,86.05" fill="rgba(28, 83, 142, 0.4)" class="triangle-float1"></path><path d="M335.77021523770406 255.74186650669228L202.1153645281804 360.1644802789442 306.53797830043237 493.81933098846787 440.19282900995603 389.39671721621596z" fill="rgba(28, 83, 142, 0.4)" class="triangle-float1"></path><path d="M889.0457628815742 200.06728803147158L760.2526774694512 397.97806631564663 966.1626952483541 412.37669740615684z" fill="rgba(28, 83, 142, 0.4)" class="triangle-float2"></path><path d="M-58.598,120.15C-23.437,122.371,13.07,105.981,28.785,74.449C43.371,45.182,26.865,12.333,8.682,-14.846C-7.003,-38.291,-30.39,-56.116,-58.598,-56.165C-86.885,-56.214,-112.064,-39.534,-126.281,-15.079C-140.576,9.511,-141.474,39.062,-128.744,64.497C-114.426,93.104,-90.524,118.133,-58.598,120.15" fill="rgba(28, 83, 142, 0.4)" class="triangle-float3"></path><path d="M473.937,362.054C504.932,362.674,525.937,332.765,539.018,304.659C549.965,281.138,547.429,254.611,534.377,232.189C521.416,209.923,499.623,194.852,473.937,192.852C443.933,190.516,409.27,195.002,394.653,221.309C380.262,247.21,398.669,276.327,413.212,302.144C428.17,328.697,443.467,361.445,473.937,362.054" fill="rgba(28, 83, 142, 0.4)" class="triangle-float1"></path><path d="M448.64816629577695 1082.6420113750924L570.7926851017683 960.497492569101 448.64816629577695 838.3529737631098 326.50364748978564 960.497492569101z" fill="rgba(28, 83, 142, 0.4)" class="triangle-float3"></path><path d="M912.3509124762952 857.2734443145616L845.4826323828814 607.7176255911953 595.9268136595151 674.5859056846091 662.7950937529289 924.1417244079754z" fill="rgba(28, 83, 142, 0.4)" class="triangle-float2"></path><path d="M652.5935436590631 438.4680681333817L886.1423987009865 413.921094327026 861.5954248946309 180.37223928510264 628.0465698527074 204.9192130914583z" fill="rgba(28, 83, 142, 0.4)" class="triangle-float2"></path><path d="M577.5012282666618 1210.776682488213L810.4474645690493 961.4492406434863 521.0313945404615 889.2897099125364z" fill="rgba(28, 83, 142, 0.4)" class="triangle-float3"></path><path d="M1 499.59 a302.24 302.24 0 1 0 604.48 0 a302.24 302.24 0 1 0 -604.48 0z" fill="rgba(28, 83, 142, 0.4)" class="triangle-float2"></path><path d="M795.083,1034.598C870.184,1032.566,935.807,987.68,972.906,922.351C1009.52,857.877,1014.982,778.325,976.662,714.85C939.481,653.261,866.973,625.064,795.083,627.798C727.981,630.35,672.186,671.276,635.944,727.806C595.873,790.309,565.583,866.543,599.77,932.449C636.029,1002.35,716.366,1036.728,795.083,1034.598" fill="rgba(28, 83, 142, 0.4)" class="triangle-float2"></path><path d="M186.429,642.875C228.156,643.315,270.097,626.565,290.725,590.291C311.157,554.362,304.369,509.649,281.932,474.937C261.373,443.131,224.296,428.319,186.429,428.937C149.74,429.536,115.777,446.948,96.181,477.971C75.071,511.391,66.894,553.457,85.871,588.133C105.508,624.015,145.527,642.444,186.429,642.875" fill="rgba(28, 83, 142, 0.4)" class="triangle-float1"></path><path d="M556.0133630295542 166.34879501138L665.7935243571847-2.697829138950823 357.3335074678733-82.8447590552311z" fill="rgba(28, 83, 142, 0.4)" class="triangle-float3"></path><path d="M445.117,450.067C533.233,452.883,623.421,415.298,664.646,337.369C703.904,263.159,670.383,177.501,627.483,105.335C585.814,35.24,526.563,-27.895,445.117,-31.922C357.205,-36.268,271.127,8.555,228.593,85.614C187.279,160.462,204.952,250.572,248.619,324.072C291.214,395.768,361.766,447.403,445.117,450.067" fill="rgba(28, 83, 142, 0.4)" class="triangle-float1"></path><path d="M1451.2855498089193 562.7453081473011L1517.357159734101 407.09034959127723 1361.7022011780773 341.01873966609537 1295.6305912528953 496.67369822211924z" fill="rgba(28, 83, 142, 0.4)" class="triangle-float3"></path><path d="M321.18663488865275-118.29270980236858L362.6989202870209 143.8055450092006 624.7971750985901 102.29325961083244 583.2848897002219-159.80499520073673z" fill="rgba(28, 83, 142, 0.4)" class="triangle-float3"></path><path d="M1294.8875337905674 268.92973847400185L1489.7556357228 156.42258736695584 1377.2484846157538-38.445514565276596 1182.3803826835215 74.06163654176939z" fill="rgba(28, 83, 142, 0.4)" class="triangle-float3"></path></g><defs><mask id="SvgjsMask1074"><rect width="1440" height="1080" fill="#ffffff"></rect></mask><style>
                @keyframes float1 {
                    0%{transform: translate(0, 0)}
                    50%{transform: translate(-10px, 0)}
                    100%{transform: translate(0, 0)}
                }

                .triangle-float1 {
                    animation: float1 5s infinite;
                }

                @keyframes float2 {
                    0%{transform: translate(0, 0)}
                    50%{transform: translate(-5px, -5px)}
                    100%{transform: translate(0, 0)}
                }

                .triangle-float2 {
                    animation: float2 4s infinite;
                }

                @keyframes float3 {
                    0%{transform: translate(0, 0)}
                    50%{transform: translate(0, -10px)}
                    100%{transform: translate(0, 0)}
                }

                .triangle-float3 {
                    animation: float3 6s infinite;
                }
            </style></defs></svg>